<mxfile host="app.diagrams.net" modified="2021-04-25T10:49:56.880Z" agent="5.0 (X11; Linux x86_64) AppleWebKit/537.36 (KHTML, like Gecko) Chrome/90.0.4430.72 Safari/537.36" etag="8Lu9j133NCXZRP7gHHeU" version="14.6.6" type="github">
  <diagram id="OLAZjmkVJU87EvhvGKNd" name="Page-1">
    <mxGraphModel dx="1680" dy="700" grid="1" gridSize="10" guides="1" tooltips="1" connect="1" arrows="1" fold="1" page="1" pageScale="1" pageWidth="850" pageHeight="1100" math="0" shadow="0">
      <root>
        <mxCell id="0" />
        <mxCell id="1" parent="0" />
        <mxCell id="2dGguUX_xhqFMB7z0ERQ-1" value="Program" style="rounded=0;whiteSpace=wrap;html=1;" vertex="1" parent="1">
          <mxGeometry x="191" y="230" width="120" height="60" as="geometry" />
        </mxCell>
        <mxCell id="2dGguUX_xhqFMB7z0ERQ-5" value="Students" style="rounded=0;whiteSpace=wrap;html=1;" vertex="1" parent="1">
          <mxGeometry x="191" y="480" width="120" height="60" as="geometry" />
        </mxCell>
        <mxCell id="2dGguUX_xhqFMB7z0ERQ-10" value="" style="edgeStyle=entityRelationEdgeStyle;fontSize=12;html=1;endArrow=ERoneToMany;startArrow=ERmandOne;entryX=0;entryY=1;entryDx=0;entryDy=0;exitX=1;exitY=0.5;exitDx=0;exitDy=0;" edge="1" parent="1" source="2dGguUX_xhqFMB7z0ERQ-5" target="2dGguUX_xhqFMB7z0ERQ-18">
          <mxGeometry width="100" height="100" relative="1" as="geometry">
            <mxPoint x="311" y="500" as="sourcePoint" />
            <mxPoint x="511" y="290" as="targetPoint" />
          </mxGeometry>
        </mxCell>
        <mxCell id="2dGguUX_xhqFMB7z0ERQ-11" value="" style="edgeStyle=entityRelationEdgeStyle;fontSize=12;html=1;endArrow=ERzeroToMany;startArrow=ERmandOne;entryX=0;entryY=0.5;entryDx=0;entryDy=0;exitX=1;exitY=1;exitDx=0;exitDy=0;" edge="1" parent="1">
          <mxGeometry width="100" height="100" relative="1" as="geometry">
            <mxPoint x="310" y="290" as="sourcePoint" />
            <mxPoint x="190" y="510" as="targetPoint" />
          </mxGeometry>
        </mxCell>
        <mxCell id="2dGguUX_xhqFMB7z0ERQ-15" value="" style="edgeStyle=entityRelationEdgeStyle;fontSize=12;html=1;endArrow=ERoneToMany;startArrow=ERoneToMany;exitX=1;exitY=0.5;exitDx=0;exitDy=0;entryX=0.014;entryY=0.631;entryDx=0;entryDy=0;entryPerimeter=0;" edge="1" parent="1" source="2dGguUX_xhqFMB7z0ERQ-1" target="2dGguUX_xhqFMB7z0ERQ-18">
          <mxGeometry width="100" height="100" relative="1" as="geometry">
            <mxPoint x="431" y="390" as="sourcePoint" />
            <mxPoint x="511" y="260" as="targetPoint" />
          </mxGeometry>
        </mxCell>
        <mxCell id="2dGguUX_xhqFMB7z0ERQ-16" value="Instructor" style="rounded=0;whiteSpace=wrap;html=1;" vertex="1" parent="1">
          <mxGeometry x="181" y="90" width="120" height="60" as="geometry" />
        </mxCell>
        <mxCell id="2dGguUX_xhqFMB7z0ERQ-17" value="" style="edgeStyle=entityRelationEdgeStyle;fontSize=12;html=1;endArrow=ERoneToMany;startArrow=ERzeroToOne;exitX=1;exitY=0;exitDx=0;exitDy=0;entryX=0;entryY=0.5;entryDx=0;entryDy=0;" edge="1" parent="1">
          <mxGeometry width="100" height="100" relative="1" as="geometry">
            <mxPoint x="310" y="230" as="sourcePoint" />
            <mxPoint x="180" y="120" as="targetPoint" />
          </mxGeometry>
        </mxCell>
        <mxCell id="2dGguUX_xhqFMB7z0ERQ-18" value="Course" style="shape=ext;margin=3;double=1;whiteSpace=wrap;html=1;align=center;" vertex="1" parent="1">
          <mxGeometry x="510" y="220" width="130" height="70" as="geometry" />
        </mxCell>
        <mxCell id="2dGguUX_xhqFMB7z0ERQ-19" value="Age" style="ellipse;whiteSpace=wrap;html=1;align=center;" vertex="1" parent="1">
          <mxGeometry x="40" y="590" width="100" height="40" as="geometry" />
        </mxCell>
        <mxCell id="2dGguUX_xhqFMB7z0ERQ-20" value="pro_name" style="ellipse;whiteSpace=wrap;html=1;align=center;" vertex="1" parent="1">
          <mxGeometry x="20" y="240" width="100" height="40" as="geometry" />
        </mxCell>
        <mxCell id="2dGguUX_xhqFMB7z0ERQ-21" value="" style="endArrow=none;html=1;entryX=0.5;entryY=1;entryDx=0;entryDy=0;exitX=0.5;exitY=0;exitDx=0;exitDy=0;" edge="1" parent="1" source="2dGguUX_xhqFMB7z0ERQ-19" target="2dGguUX_xhqFMB7z0ERQ-5">
          <mxGeometry width="50" height="50" relative="1" as="geometry">
            <mxPoint x="100" y="300" as="sourcePoint" />
            <mxPoint x="150" y="250" as="targetPoint" />
          </mxGeometry>
        </mxCell>
        <mxCell id="2dGguUX_xhqFMB7z0ERQ-22" value="" style="endArrow=none;html=1;entryX=0;entryY=0.5;entryDx=0;entryDy=0;exitX=1;exitY=0.5;exitDx=0;exitDy=0;" edge="1" parent="1" source="2dGguUX_xhqFMB7z0ERQ-20" target="2dGguUX_xhqFMB7z0ERQ-1">
          <mxGeometry width="50" height="50" relative="1" as="geometry">
            <mxPoint x="100" y="320" as="sourcePoint" />
            <mxPoint x="150" y="270" as="targetPoint" />
          </mxGeometry>
        </mxCell>
      </root>
    </mxGraphModel>
  </diagram>
</mxfile>
